<?xml version="1.0" encoding="UTF-8" standalone="no"?>
<svg
   xmlns:dc="http://purl.org/dc/elements/1.1/"
   xmlns:cc="http://creativecommons.org/ns#"
   xmlns:rdf="http://www.w3.org/1999/02/22-rdf-syntax-ns#"
   xmlns:svg="http://www.w3.org/2000/svg"
   xmlns="http://www.w3.org/2000/svg"
   xmlns:sodipodi="http://sodipodi.sourceforge.net/DTD/sodipodi-0.dtd"
   xmlns:inkscape="http://www.inkscape.org/namespaces/inkscape"
   width="2in"
   height="2in"
   viewBox="0 0 50.800002 50.800001"
   version="1.1"
   id="svg8"
   sodipodi:docname="OpenNec.svg"
   inkscape:version="1.0.2 (e86c870879, 2021-01-15, custom)">
  <defs
     id="defs2" />
  <sodipodi:namedview
     id="base"
     pagecolor="#ffffff"
     bordercolor="#666666"
     borderopacity="1.0"
     inkscape:pageopacity="0.0"
     inkscape:pageshadow="2"
     inkscape:zoom="44.8"
     inkscape:cx="-0.51241918"
     inkscape:cy="165.67587"
     inkscape:document-units="in"
     inkscape:current-layer="layer1"
     inkscape:document-rotation="0"
     showgrid="false"
     units="in"
     inkscape:window-width="1139"
     inkscape:window-height="1018"
     inkscape:window-x="772"
     inkscape:window-y="0"
     inkscape:window-maximized="0" />
  <metadata
     id="metadata5">
    <rdf:RDF>
      <cc:Work
         rdf:about="">
        <dc:format>image/svg+xml</dc:format>
        <dc:type
           rdf:resource="http://purl.org/dc/dcmitype/StillImage" />
        <dc:title></dc:title>
      </cc:Work>
    </rdf:RDF>
  </metadata>
  <g
     inkscape:label="Layer 1"
     inkscape:groupmode="layer"
     id="layer1">
    <path
       style="fill:none;stroke:#1a1a1a;stroke-width:0.264583px;stroke-linecap:butt;stroke-linejoin:bevel;stroke-opacity:1"
       d="M 13.437714,0.57692847 1.842634,5.4725485"
       id="path835"
       sodipodi:nodetypes="cc" />
    <path
       style="fill:none;stroke:#1a1a1a;stroke-width:0.264583px;stroke-linecap:butt;stroke-linejoin:bevel;stroke-opacity:1"
       d="M 15.191341,0.57692847 26.786421,5.4725485"
       id="path835-6"
       sodipodi:nodetypes="cc" />
    <path
       style="fill:none;stroke:#b3b3b3;stroke-width:0.264583px;stroke-linecap:round;stroke-linejoin:miter;stroke-opacity:1"
       d="m 26.529947,11.10839 49.594475,6.84548"
       id="path1034"
       sodipodi:nodetypes="cc" />
    <path
       style="fill:none;stroke:#b3b3b3;stroke-width:0.264583px;stroke-linecap:round;stroke-linejoin:miter;stroke-opacity:1"
       d="m 26.382724,11.10839 -49.594453,6.84548"
       id="path1038"
       sodipodi:nodetypes="cc" />
    <path
       style="fill:none;stroke:#502d16;stroke-width:0.508;stroke-linecap:butt;stroke-linejoin:miter;stroke-miterlimit:4;stroke-dasharray:none;stroke-opacity:1"
       d="M 1.842634,5.4725485 H 26.78642"
       id="path877" />
    <g
       id="g1019">
      <path
         id="path879"
         style="fill:none;stroke:#333333;stroke-width:0.318368;stroke-linejoin:bevel;stroke-miterlimit:4;stroke-dasharray:none"
         d="m 26.756571,5.9161339 a 0.29495046,0.03622804 0 0 1 -0.294951,0.036228 0.29495046,0.03622804 0 0 1 -0.29495,-0.036228 0.29495046,0.03622804 0 0 1 0.29495,-0.036228 0.29495046,0.03622804 0 0 1 0.294951,0.036228 z" />
      <path
         id="ellipse901"
         style="fill:none;stroke:#333333;stroke-width:0.318368;stroke-linejoin:bevel;stroke-miterlimit:4;stroke-dasharray:none"
         d="m 26.756571,6.2941103 a 0.29495046,0.03622804 0 0 1 -0.294951,0.036228 0.29495046,0.03622804 0 0 1 -0.29495,-0.036228 0.29495046,0.03622804 0 0 1 0.29495,-0.036228 0.29495046,0.03622804 0 0 1 0.294951,0.036228 z" />
      <path
         id="ellipse903"
         style="fill:none;stroke:#333333;stroke-width:0.318368;stroke-linejoin:bevel;stroke-miterlimit:4;stroke-dasharray:none"
         d="m 26.756571,6.6750393 a 0.29495046,0.03622804 0 0 1 -0.294951,0.036228 0.29495046,0.03622804 0 0 1 -0.29495,-0.036228 0.29495046,0.03622804 0 0 1 0.29495,-0.036228 0.29495046,0.03622804 0 0 1 0.294951,0.036228 z" />
      <path
         id="ellipse905"
         style="fill:none;stroke:#333333;stroke-width:0.318368;stroke-linejoin:bevel;stroke-miterlimit:4;stroke-dasharray:none"
         d="m 26.756571,7.0559683 a 0.29495046,0.03622804 0 0 1 -0.294951,0.036228 0.29495046,0.03622804 0 0 1 -0.29495,-0.036228 0.29495046,0.03622804 0 0 1 0.29495,-0.036228 0.29495046,0.03622804 0 0 1 0.294951,0.036228 z" />
      <path
         id="ellipse907"
         style="fill:none;stroke:#333333;stroke-width:0.318368;stroke-linejoin:bevel;stroke-miterlimit:4;stroke-dasharray:none"
         d="m 26.756571,7.4443445 a 0.29495046,0.03622804 0 0 1 -0.294951,0.036228 0.29495046,0.03622804 0 0 1 -0.29495,-0.036228 0.29495046,0.03622804 0 0 1 0.29495,-0.036228 0.29495046,0.03622804 0 0 1 0.294951,0.036228 z" />
      <path
         id="ellipse909"
         style="fill:none;stroke:#333333;stroke-width:0.318368;stroke-linejoin:bevel;stroke-miterlimit:4;stroke-dasharray:none"
         d="m 26.756571,7.8287816 a 0.29495046,0.03622804 0 0 1 -0.294951,0.036228 0.29495046,0.03622804 0 0 1 -0.29495,-0.036228 0.29495046,0.03622804 0 0 1 0.29495,-0.036228 0.29495046,0.03622804 0 0 1 0.294951,0.036228 z" />
      <path
         id="ellipse911"
         style="fill:none;stroke:#333333;stroke-width:0.318368;stroke-linejoin:bevel;stroke-miterlimit:4;stroke-dasharray:none"
         d="m 26.756571,8.2067575 a 0.29495046,0.03622804 0 0 1 -0.294951,0.036228 0.29495046,0.03622804 0 0 1 -0.29495,-0.036228 0.29495046,0.03622804 0 0 1 0.29495,-0.036228 0.29495046,0.03622804 0 0 1 0.294951,0.036228 z" />
      <path
         id="ellipse913"
         style="fill:none;stroke:#333333;stroke-width:0.318368;stroke-linejoin:bevel;stroke-miterlimit:4;stroke-dasharray:none"
         d="m 26.756571,8.5876865 a 0.29495046,0.03622804 0 0 1 -0.294951,0.036228 0.29495046,0.03622804 0 0 1 -0.29495,-0.036228 0.29495046,0.03622804 0 0 1 0.29495,-0.036228 0.29495046,0.03622804 0 0 1 0.294951,0.036228 z" />
      <path
         id="ellipse915"
         style="fill:none;stroke:#333333;stroke-width:0.318368;stroke-linejoin:bevel;stroke-miterlimit:4;stroke-dasharray:none"
         d="m 26.756571,8.9686155 a 0.29495046,0.03622804 0 0 1 -0.294951,0.036228 0.29495046,0.03622804 0 0 1 -0.29495,-0.036228 0.29495046,0.03622804 0 0 1 0.29495,-0.036228 0.29495046,0.03622804 0 0 1 0.294951,0.036228 z" />
      <path
         id="ellipse917"
         style="fill:none;stroke:#333333;stroke-width:0.318368;stroke-linejoin:bevel;stroke-miterlimit:4;stroke-dasharray:none"
         d="m 26.756571,9.3569918 a 0.29495046,0.03622804 0 0 1 -0.294951,0.036228 0.29495046,0.03622804 0 0 1 -0.29495,-0.036228 0.29495046,0.03622804 0 0 1 0.29495,-0.036228 0.29495046,0.03622804 0 0 1 0.294951,0.036228 z" />
      <path
         id="ellipse919"
         style="fill:none;stroke:#333333;stroke-width:0.318368;stroke-linejoin:bevel;stroke-miterlimit:4;stroke-dasharray:none"
         d="m 26.756571,9.7422857 a 0.29495046,0.03622804 0 0 1 -0.294951,0.036228 0.29495046,0.03622804 0 0 1 -0.29495,-0.036228 0.29495046,0.03622804 0 0 1 0.29495,-0.036228 0.29495046,0.03622804 0 0 1 0.294951,0.036228 z" />
      <path
         id="ellipse921"
         style="fill:none;stroke:#333333;stroke-width:0.318368;stroke-linejoin:bevel;stroke-miterlimit:4;stroke-dasharray:none"
         d="m 26.756571,10.123215 a 0.29495046,0.03622804 0 0 1 -0.294951,0.03623 0.29495046,0.03622804 0 0 1 -0.29495,-0.03623 0.29495046,0.03622804 0 0 1 0.29495,-0.03623 0.29495046,0.03622804 0 0 1 0.294951,0.03623 z" />
      <path
         id="ellipse923"
         style="fill:none;stroke:#333333;stroke-width:0.318368;stroke-linejoin:bevel;stroke-miterlimit:4;stroke-dasharray:none"
         d="m 26.756571,10.504144 a 0.29495046,0.03622804 0 0 1 -0.294951,0.03623 0.29495046,0.03622804 0 0 1 -0.29495,-0.03623 0.29495046,0.03622804 0 0 1 0.29495,-0.03623 0.29495046,0.03622804 0 0 1 0.294951,0.03623 z" />
      <path
         id="ellipse925"
         style="fill:none;stroke:#333333;stroke-width:0.318368;stroke-linejoin:bevel;stroke-miterlimit:4;stroke-dasharray:none"
         d="m 26.756571,10.89252 a 0.29495046,0.03622804 0 0 1 -0.294951,0.03623 0.29495046,0.03622804 0 0 1 -0.29495,-0.03623 0.29495046,0.03622804 0 0 1 0.29495,-0.03623 0.29495046,0.03622804 0 0 1 0.294951,0.03623 z" />
    </g>
    <path
       style="fill:none;stroke:#b3b3b3;stroke-width:0.264583px;stroke-linecap:butt;stroke-linejoin:miter;stroke-opacity:1"
       d="m 36.238469,37.032216 v 6.968952"
       id="path1042"
       sodipodi:nodetypes="cc" />
    <path
       style="fill:none;stroke:#502d16;stroke-width:1.016;stroke-linecap:butt;stroke-linejoin:miter;stroke-miterlimit:4;stroke-dasharray:none;stroke-opacity:1"
       d="M 14.741072,36.929615 H 51.75703"
       id="path955"
       sodipodi:nodetypes="cc" />
    <path
       style="fill:none;stroke:#502d16;stroke-width:0.508;stroke-linecap:butt;stroke-linejoin:miter;stroke-miterlimit:4;stroke-dasharray:none;stroke-opacity:1"
       d="m 14.673383,29.245616 37.217282,6.815373"
       id="path957"
       sodipodi:nodetypes="cc" />
    <path
       style="fill:none;stroke:#502d16;stroke-width:0.508;stroke-linecap:butt;stroke-linejoin:miter;stroke-miterlimit:4;stroke-dasharray:none;stroke-opacity:1"
       d="M 34.076866,36.675018 V 32.82723"
       id="path959" />
    <path
       style="fill:none;stroke:#b3b3b3;stroke-width:0.264583px;stroke-linecap:round;stroke-linejoin:miter;stroke-opacity:1"
       d="M 2.0410568,11.10839 -47.553421,17.95387"
       id="path1040"
       sodipodi:nodetypes="cc" />
    <g
       id="g1058"
       transform="translate(0,-5.5137248)">
      <path
         id="path1046"
         style="fill:#cccccc;stroke:#b3b3b3;stroke-width:0.468466;stroke-linecap:round;stroke-linejoin:bevel;stroke-miterlimit:4;stroke-dasharray:none"
         d="m 36.636211,45.678089 a 0.39183721,0.05722874 0 0 1 -0.391838,0.05723 0.39183721,0.05722874 0 0 1 -0.391837,-0.05723 0.39183721,0.05722874 0 0 1 0.391837,-0.05723 0.39183721,0.05722874 0 0 1 0.391838,0.05723 z" />
      <path
         id="ellipse1048"
         style="fill:#cccccc;stroke:#b3b3b3;stroke-width:0.468466;stroke-linecap:round;stroke-linejoin:bevel;stroke-miterlimit:4;stroke-dasharray:none"
         d="m 36.636211,45.099312 a 0.39183721,0.05722874 0 0 1 -0.391838,0.05723 0.39183721,0.05722874 0 0 1 -0.391837,-0.05723 0.39183721,0.05722874 0 0 1 0.391837,-0.05723 0.39183721,0.05722874 0 0 1 0.391838,0.05723 z" />
      <path
         id="ellipse1050"
         style="fill:#cccccc;stroke:#b3b3b3;stroke-width:0.468466;stroke-linecap:round;stroke-linejoin:bevel;stroke-miterlimit:4;stroke-dasharray:none"
         d="m 36.636211,44.508724 a 0.39183721,0.05722874 0 0 1 -0.391838,0.05723 0.39183721,0.05722874 0 0 1 -0.391837,-0.05723 0.39183721,0.05722874 0 0 1 0.391837,-0.05723 0.39183721,0.05722874 0 0 1 0.391838,0.05723 z" />
    </g>
    <path
       style="fill:none;stroke:#b3b3b3;stroke-width:0.264583px;stroke-linecap:round;stroke-linejoin:miter;stroke-opacity:1"
       d="m 36.170017,40.660429 -49.594453,2.687843"
       id="path1062"
       sodipodi:nodetypes="cc" />
    <path
       style="fill:none;stroke:#b3b3b3;stroke-width:0.264583px;stroke-linecap:round;stroke-linejoin:miter;stroke-opacity:1"
       d="M 36.170017,40.660429 85.76447,43.348272"
       id="path1064"
       sodipodi:nodetypes="cc" />
    <path
       style="fill:none;stroke:#b3b3b3;stroke-width:0.264583px;stroke-linecap:butt;stroke-linejoin:miter;stroke-opacity:1"
       d="M -2.0077968,43.92457 H 52.915993"
       id="path1066" />
    <path
       style="fill:none;stroke:#502d16;stroke-width:2.032;stroke-linecap:butt;stroke-linejoin:miter;stroke-miterlimit:4;stroke-dasharray:none;stroke-opacity:1"
       d="M 14.310046,51.546266 V 0.45510545"
       id="path10"
       sodipodi:nodetypes="cc" />
    <path
       style="fill:none;stroke:#b3b3b3;stroke-width:0.264583px;stroke-linecap:round;stroke-linejoin:miter;stroke-opacity:1"
       d="M 2.1882693,11.10839 51.78274,17.95387"
       id="path1021"
       sodipodi:nodetypes="cc" />
    <g
       id="g989">
      <ellipse
         style="fill:none;stroke:#333333;stroke-width:0.318368;stroke-linejoin:bevel;stroke-miterlimit:4;stroke-dasharray:none"
         id="ellipse927"
         cx="2.1735008"
         cy="5.9161339"
         rx="0.29495046"
         ry="0.036228042" />
      <ellipse
         style="fill:none;stroke:#333333;stroke-width:0.318368;stroke-linejoin:bevel;stroke-miterlimit:4;stroke-dasharray:none"
         id="ellipse929"
         cx="2.1735008"
         cy="6.2941103"
         rx="0.29495046"
         ry="0.036228042" />
      <ellipse
         style="fill:none;stroke:#333333;stroke-width:0.318368;stroke-linejoin:bevel;stroke-miterlimit:4;stroke-dasharray:none"
         id="ellipse931"
         cx="2.1735008"
         cy="6.6750393"
         rx="0.29495046"
         ry="0.036228042" />
      <ellipse
         style="fill:none;stroke:#333333;stroke-width:0.318368;stroke-linejoin:bevel;stroke-miterlimit:4;stroke-dasharray:none"
         id="ellipse933"
         cx="2.1735008"
         cy="7.0559683"
         rx="0.29495046"
         ry="0.036228042" />
      <ellipse
         style="fill:none;stroke:#333333;stroke-width:0.318368;stroke-linejoin:bevel;stroke-miterlimit:4;stroke-dasharray:none"
         id="ellipse935"
         cx="2.1735008"
         cy="7.4443445"
         rx="0.29495046"
         ry="0.036228042" />
      <ellipse
         style="fill:none;stroke:#333333;stroke-width:0.318368;stroke-linejoin:bevel;stroke-miterlimit:4;stroke-dasharray:none"
         id="ellipse937"
         cx="2.1735008"
         cy="7.8287816"
         rx="0.29495046"
         ry="0.036228042" />
      <ellipse
         style="fill:none;stroke:#333333;stroke-width:0.318368;stroke-linejoin:bevel;stroke-miterlimit:4;stroke-dasharray:none"
         id="ellipse939"
         cx="2.1735008"
         cy="8.2067575"
         rx="0.29495046"
         ry="0.036228042" />
      <ellipse
         style="fill:none;stroke:#333333;stroke-width:0.318368;stroke-linejoin:bevel;stroke-miterlimit:4;stroke-dasharray:none"
         id="ellipse941"
         cx="2.1735008"
         cy="8.5876865"
         rx="0.29495046"
         ry="0.036228042" />
      <ellipse
         style="fill:none;stroke:#333333;stroke-width:0.318368;stroke-linejoin:bevel;stroke-miterlimit:4;stroke-dasharray:none"
         id="ellipse943"
         cx="2.1735008"
         cy="8.9686155"
         rx="0.29495046"
         ry="0.036228042" />
      <ellipse
         style="fill:none;stroke:#333333;stroke-width:0.318368;stroke-linejoin:bevel;stroke-miterlimit:4;stroke-dasharray:none"
         id="ellipse945"
         cx="2.1735008"
         cy="9.3569918"
         rx="0.29495046"
         ry="0.036228042" />
      <ellipse
         style="fill:none;stroke:#333333;stroke-width:0.318368;stroke-linejoin:bevel;stroke-miterlimit:4;stroke-dasharray:none"
         id="ellipse947"
         cx="2.1735008"
         cy="9.7422857"
         rx="0.29495046"
         ry="0.036228042" />
      <ellipse
         style="fill:none;stroke:#333333;stroke-width:0.318368;stroke-linejoin:bevel;stroke-miterlimit:4;stroke-dasharray:none"
         id="ellipse949"
         cx="2.1735008"
         cy="10.123215"
         rx="0.29495046"
         ry="0.036228042" />
      <ellipse
         style="fill:none;stroke:#333333;stroke-width:0.318368;stroke-linejoin:bevel;stroke-miterlimit:4;stroke-dasharray:none"
         id="ellipse951"
         cx="2.1735008"
         cy="10.504144"
         rx="0.29495046"
         ry="0.036228042" />
      <ellipse
         style="fill:none;stroke:#333333;stroke-width:0.318368;stroke-linejoin:bevel;stroke-miterlimit:4;stroke-dasharray:none"
         id="ellipse953"
         cx="2.1735008"
         cy="10.89252"
         rx="0.29495046"
         ry="0.036228042" />
    </g>
    <path
       style="fill:none;stroke:#b3b3b3;stroke-width:0.264583px;stroke-linecap:butt;stroke-linejoin:miter;stroke-opacity:1"
       d="m 49.609342,41.375362 0,2.625806"
       id="path1068"
       sodipodi:nodetypes="cc" />
    <path
       style="fill:none;stroke:#b3b3b3;stroke-width:0.264583px;stroke-linecap:butt;stroke-linejoin:miter;stroke-opacity:1"
       d="m 24.140676,41.375362 v 2.625806"
       id="path1070"
       sodipodi:nodetypes="cc" />
    <path
       style="fill:none;stroke:#b3b3b3;stroke-width:0.264583px;stroke-linecap:butt;stroke-linejoin:miter;stroke-opacity:1"
       d="m 11.4315,42.007549 v 1.993619"
       id="path1072"
       sodipodi:nodetypes="cc" />
    <path
       style="fill:none;stroke:#b3b3b3;stroke-width:0.264583px;stroke-linecap:butt;stroke-linejoin:miter;stroke-opacity:1"
       d="m 1.0021332,42.598076 v 1.403092"
       id="path1074"
       sodipodi:nodetypes="cc" />
  </g>
</svg>
